<svg xmlns="http://www.w3.org/2000/svg" xmlns:svg="http://www.w3.org/2000/svg" id="svg2" width="447.6" height="212.21" version="1.1"><metadata id="metadata7"/><g id="layer1" transform="translate(56.082351,-319.04344)"><g id="g2989" transform="translate(-93.876994,199.60201)"><path id="path2991" d="m 229.20098,184.79534 c -5.33505,0 -9.65748,-3.98488 -9.65748,-8.90738 0,-4.9225 4.32243,-8.90738 9.65748,-8.90738" style="fill:none;stroke:#000;stroke-width:1.24703336px;stroke-linecap:butt;stroke-linejoin:miter;stroke-miterlimit:4;stroke-opacity:1;stroke-dasharray:none"/><path id="path2993" d="m 190.55232,166.98058 38.64866,0 c 5.33505,0 9.66685,3.98488 9.66685,8.90738 0,4.9225 -4.3318,8.90738 -9.66685,8.90738 l -38.64866,0 c -5.33505,0 -9.66685,-3.98488 -9.66685,-8.90738 0,-4.9225 4.3318,-8.90738 9.66685,-8.90738 z" style="fill:none;stroke:#000;stroke-width:1.24703336px;stroke-linecap:butt;stroke-linejoin:miter;stroke-miterlimit:4;stroke-opacity:1;stroke-dasharray:none"/><path id="path2995" d="m 229.20098,257.30142 c -5.33505,0 -9.65748,-3.94737 -9.65748,-8.82299 0,-4.87562 4.32243,-8.83237 9.65748,-8.83237" style="fill:none;stroke:#000;stroke-width:1.24703336px;stroke-linecap:butt;stroke-linejoin:miter;stroke-miterlimit:4;stroke-opacity:1;stroke-dasharray:none"/><path id="path2997" d="m 190.55232,239.64606 38.64866,0 c 5.33505,0 9.66685,3.95675 9.66685,8.83237 0,4.87562 -4.3318,8.82299 -9.66685,8.82299 l -38.64866,0 c -5.33505,0 -9.66685,-3.94737 -9.66685,-8.82299 0,-4.87562 4.3318,-8.83237 9.66685,-8.83237 z" style="fill:none;stroke:#000;stroke-width:1.24703336px;stroke-linecap:butt;stroke-linejoin:miter;stroke-miterlimit:4;stroke-opacity:1;stroke-dasharray:none"/><path id="path2999" d="m 80.56023,234.02034 c 0,-1.98775 1.5752,-3.59108 3.516071,-3.59108 1.950248,0 3.516072,1.60333 3.516072,3.59108 0,1.98775 -1.565824,3.59108 -3.516072,3.59108 -1.940871,0 -3.516071,-1.60333 -3.516071,-3.59108" style="fill:#000;fill-opacity:1;fill-rule:evenodd;stroke:none"/><path id="path3001" d="m 80.56023,234.02034 c 0,-1.98775 1.5752,-3.59108 3.516071,-3.59108 1.950248,0 3.516072,1.60333 3.516072,3.59108 0,1.98775 -1.565824,3.59108 -3.516072,3.59108 -1.940871,0 -3.516071,-1.60333 -3.516071,-3.59108" style="fill:none;stroke:#000;stroke-width:1.24703336px;stroke-linecap:butt;stroke-linejoin:miter;stroke-miterlimit:4;stroke-opacity:1;stroke-dasharray:none"/><path id="path3003" d="m 84.160687,237.61142 0,10.90451" style="fill:none;stroke:#000;stroke-width:1.87523818px;stroke-linecap:butt;stroke-linejoin:miter;stroke-miterlimit:4;stroke-opacity:1;stroke-dasharray:none"/><path id="path3005" d="M 84.160687,246.5188 70.405815,280.69502" style="fill:none;stroke:#000;stroke-width:1.87523818px;stroke-linecap:butt;stroke-linejoin:miter;stroke-miterlimit:4;stroke-opacity:1;stroke-dasharray:none"/><path id="path3007" d="m 84.160687,246.5188 13.754871,34.17622" style="fill:none;stroke:#000;stroke-width:1.87523818px;stroke-linecap:butt;stroke-linejoin:miter;stroke-miterlimit:4;stroke-opacity:1;stroke-dasharray:none"/><path id="path3009" d="m 78.684992,259.17666 10.548214,0" style="fill:none;stroke:#000;stroke-width:.62820476px;stroke-linecap:butt;stroke-linejoin:miter;stroke-miterlimit:4;stroke-opacity:1;stroke-dasharray:none"/><path id="path3011" d="m 76.809753,265.73999 15.001905,0" style="fill:none;stroke:#000;stroke-width:.62820476px;stroke-linecap:butt;stroke-linejoin:miter;stroke-miterlimit:4;stroke-opacity:1;stroke-dasharray:none"/><path id="path3013" d="m 74.465706,271.36571 19.221191,0" style="fill:none;stroke:#000;stroke-width:.62820476px;stroke-linecap:butt;stroke-linejoin:miter;stroke-miterlimit:4;stroke-opacity:1;stroke-dasharray:none"/><path id="path3015" d="m 72.121658,276.99142 24.6125,0" style="fill:none;stroke:#000;stroke-width:.62820476px;stroke-linecap:butt;stroke-linejoin:miter;stroke-miterlimit:4;stroke-opacity:1;stroke-dasharray:none"/><path id="path3017" d="m 90.030182,223.30336 c 5.475695,5.23191 5.672595,13.91426 0.440681,19.38996" style="fill:none;stroke:#000;stroke-width:.62820476px;stroke-linecap:butt;stroke-linejoin:miter;stroke-miterlimit:4;stroke-opacity:1;stroke-dasharray:none"/><path id="path3019" d="m 95.740282,223.30336 c 5.475698,5.23191 5.672598,13.91426 0.440681,19.38996" style="fill:none;stroke:#000;stroke-width:.62820476px;stroke-linecap:butt;stroke-linejoin:miter;stroke-miterlimit:4;stroke-opacity:1;stroke-dasharray:none"/><path id="path3021" d="m 101.44101,223.30336 c 5.47569,5.23191 5.67259,13.91426 0.44068,19.38996" style="fill:none;stroke:#000;stroke-width:.62820476px;stroke-linecap:butt;stroke-linejoin:miter;stroke-miterlimit:4;stroke-opacity:1;stroke-dasharray:none"/><path id="path3023" d="M 77.241058,242.65581 C 71.765363,237.4239 71.568463,228.74155 76.800377,223.26585" style="fill:none;stroke:#000;stroke-width:.62820476px;stroke-linecap:butt;stroke-linejoin:miter;stroke-miterlimit:4;stroke-opacity:1;stroke-dasharray:none"/><path id="path3025" d="M 71.540334,242.65581 C 66.064639,237.4239 65.867739,228.74155 71.099653,223.26585" style="fill:none;stroke:#000;stroke-width:.62820476px;stroke-linecap:butt;stroke-linejoin:miter;stroke-miterlimit:4;stroke-opacity:1;stroke-dasharray:none"/><path id="path3027" d="M 65.83961,242.65581 C 60.363915,237.4239 60.167015,228.74155 65.398929,223.26585" style="fill:none;stroke:#000;stroke-width:.62820476px;stroke-linecap:butt;stroke-linejoin:miter;stroke-miterlimit:4;stroke-opacity:1;stroke-dasharray:none"/><path id="path3029" d="m 66.186529,155.39161 c 0,-3.26292 2.644086,-5.91638 5.916377,-5.91638 l 23.646752,0 c 3.262915,0 5.907002,2.65346 5.907002,5.91638 l 0,40.21448 c 0,3.26291 -2.644087,5.907 -5.907002,5.907 l -23.646752,0 c -3.272291,0 -5.916377,-2.64409 -5.916377,-5.907 z" style="fill:none;stroke:#000;stroke-width:1.24703336px;stroke-linecap:butt;stroke-linejoin:miter;stroke-miterlimit:4;stroke-opacity:1;stroke-dasharray:none"/><path id="path3031" d="m 70.24642,156.03856 27.350348,0 0,4.37869 -27.350348,0 z" style="fill:none;stroke:#000;stroke-width:.62820476px;stroke-linecap:butt;stroke-linejoin:miter;stroke-miterlimit:4;stroke-opacity:1;stroke-dasharray:none"/><path id="path3033" d="m 70.24642,162.45188 27.350348,0 0,4.5287 -27.350348,0 z" style="fill:none;stroke:#000;stroke-width:.62820476px;stroke-linecap:butt;stroke-linejoin:miter;stroke-miterlimit:4;stroke-opacity:1;stroke-dasharray:none"/><path id="path3035" d="m 70.24642,169.01521 27.350348,0 0,4.5287 -27.350348,0 z" style="fill:none;stroke:#000;stroke-width:.62820476px;stroke-linecap:butt;stroke-linejoin:miter;stroke-miterlimit:4;stroke-opacity:1;stroke-dasharray:none"/><path id="path3037" d="m 70.24642,175.57855 27.350348,0 0,4.3693 -27.350348,0 z" style="fill:none;stroke:#000;stroke-width:.62820476px;stroke-linecap:butt;stroke-linejoin:miter;stroke-miterlimit:4;stroke-opacity:1;stroke-dasharray:none"/><text id="text3039" x="42.695" y="136.734" xml:space="preserve" style="font-size:11.2514286px;font-style:normal;font-weight:400;text-align:start;text-anchor:start;fill:#000;font-family:Verdana">Event Producer</text><text id="text3041" x="164.959" y="136.734" xml:space="preserve" style="font-size:11.2514286px;font-style:normal;font-weight:400;text-align:start;text-anchor:start;fill:#000;font-family:Verdana">Message Queue</text><path id="path3043" d="m 314.49619,174.79095 c 0,-8.79487 7.14465,-15.93953 15.93952,-15.93953 8.81362,0 15.93952,7.14466 15.93952,15.93953 0,8.81361 -7.1259,15.93952 -15.93952,15.93952 -8.79487,0 -15.93952,-7.12591 -15.93952,-15.93952" style="fill:none;stroke:#000;stroke-width:1.25640953px;stroke-linecap:butt;stroke-linejoin:miter;stroke-miterlimit:4;stroke-opacity:1;stroke-dasharray:none"/><text id="text3045" x="317.237" y="129.917" xml:space="preserve" style="font-size:11.2514286px;font-style:normal;font-weight:400;text-align:start;text-anchor:start;fill:#000;font-family:Verdana">Flink</text><text id="text3047" x="295.784" y="143.419" xml:space="preserve" style="font-size:11.2514286px;font-style:normal;font-weight:400;text-align:start;text-anchor:start;fill:#000;font-family:Verdana">Data Source</text><text id="text3049" x="415.788" y="129.917" xml:space="preserve" style="font-size:11.2514286px;font-style:normal;font-weight:400;text-align:start;text-anchor:start;fill:#000;font-family:Verdana">Flink</text><text id="text3051" x="379.484" y="143.419" xml:space="preserve" style="font-size:11.2514286px;font-style:normal;font-weight:400;text-align:start;text-anchor:start;fill:#000;font-family:Verdana">Window Operator</text><path id="path3053" d="m 314.49619,248.71283 c 0,-8.79486 7.14465,-15.93952 15.93952,-15.93952 8.81362,0 15.93952,7.14466 15.93952,15.93952 0,8.81362 -7.1259,15.93953 -15.93952,15.93953 -8.79487,0 -15.93952,-7.12591 -15.93952,-15.93953" style="fill:none;stroke:#000;stroke-width:1.25640953px;stroke-linecap:butt;stroke-linejoin:miter;stroke-miterlimit:4;stroke-opacity:1;stroke-dasharray:none"/><path id="path3055" d="m 408.89567,174.79095 c 0,-8.79487 7.16341,-15.93953 16.01454,-15.93953 8.85112,0 16.01453,7.14466 16.01453,15.93953 0,8.81361 -7.16341,15.93952 -16.01453,15.93952 -8.85113,0 -16.01454,-7.12591 -16.01454,-15.93952" style="fill:none;stroke:#000;stroke-width:1.25640953px;stroke-linecap:butt;stroke-linejoin:miter;stroke-miterlimit:4;stroke-opacity:1;stroke-dasharray:none"/><path id="path3057" d="m 408.89567,248.71283 c 0,-8.79486 7.16341,-15.93952 16.01454,-15.93952 8.85112,0 16.01453,7.14466 16.01453,15.93952 0,8.81362 -7.16341,15.93953 -16.01453,15.93953 -8.85113,0 -16.01454,-7.12591 -16.01454,-15.93953" style="fill:none;stroke:#000;stroke-width:1.25640953px;stroke-linecap:butt;stroke-linejoin:miter;stroke-miterlimit:4;stroke-opacity:1;stroke-dasharray:none"/><path id="path3059" d="m 432.33615,169.63404 c 2.41906,0 4.3693,0.16877 4.3693,0.37505 l 0,9.43245 c 0,0.18752 -1.95024,0.35629 -4.3693,0.35629" style="fill:none;stroke:#000;stroke-width:1.87523818px;stroke-linecap:butt;stroke-linejoin:miter;stroke-miterlimit:4;stroke-opacity:1;stroke-dasharray:none"/><path id="path3061" d="m 418.5719,169.63404 c -2.49407,0 -4.51932,0.16877 -4.51932,0.3938 l 0,9.39494 c 0,0.20628 2.02525,0.37505 4.51932,0.37505" style="fill:none;stroke:#000;stroke-width:1.87523818px;stroke-linecap:butt;stroke-linejoin:miter;stroke-miterlimit:4;stroke-opacity:1;stroke-dasharray:none"/><path id="path3063" d="m 432.33615,244.02474 c 2.41906,0 4.3693,0.16877 4.3693,0.37504 l 0,9.4137 c 0,0.20628 -1.95024,0.37505 -4.3693,0.37505" style="fill:none;stroke:#000;stroke-width:1.87523818px;stroke-linecap:butt;stroke-linejoin:miter;stroke-miterlimit:4;stroke-opacity:1;stroke-dasharray:none"/><path id="path3065" d="m 418.5719,244.02474 c -2.49407,0 -4.51932,0.16877 -4.51932,0.37504 l 0,9.4137 c 0,0.20628 2.02525,0.37505 4.51932,0.37505" style="fill:none;stroke:#000;stroke-width:1.87523818px;stroke-linecap:butt;stroke-linejoin:miter;stroke-miterlimit:4;stroke-opacity:1;stroke-dasharray:none"/><path id="path3067" d="m 323.57234,170.53415 7.50095,0 0,-4.18178 7.50095,8.36357 -7.50095,8.36356 0,-4.18178 -7.50095,0 z" style="fill:none;stroke:#000;stroke-width:.61882859px;stroke-linecap:butt;stroke-linejoin:miter;stroke-miterlimit:4;stroke-opacity:1;stroke-dasharray:none"/><path id="path3069" d="m 323.57234,244.60606 7.50095,0 0,-4.18178 7.50095,8.36356 -7.50095,8.36356 0,-4.18178 -7.50095,0 z" style="fill:none;stroke:#000;stroke-width:.61882859px;stroke-linecap:butt;stroke-linejoin:miter;stroke-miterlimit:4;stroke-opacity:1;stroke-dasharray:none"/><path id="path3071" d="m 117.44616,174.17212 49.70319,0 0,1.24703 -49.70319,0 z m 42.52103,-4.2943 8.41982,4.91313 -8.41982,4.9225 c -0.30004,0.16877 -0.68446,0.075 -0.85324,-0.22503 -0.17814,-0.30004 -0.075,-0.68447 0.22503,-0.85324 l 7.50096,-4.37868 0,1.07826 -7.50096,-4.37868 c -0.30003,-0.16877 -0.40317,-0.55319 -0.22503,-0.85323 0.16878,-0.30004 0.5532,-0.3938 0.85324,-0.22503 z" style="fill:#000;fill-opacity:1;fill-rule:nonzero;stroke:#000;stroke-width:.00937619px;stroke-linecap:butt;stroke-linejoin:round;stroke-opacity:1;stroke-dasharray:none"/><path id="path3073" d="m 117.44616,247.92523 49.70319,0 0,1.25641 -49.70319,0 z m 42.52103,-4.28492 8.41982,4.91313 -8.41982,4.91312 c -0.30004,0.17815 -0.68446,0.075 -0.85324,-0.22503 -0.17814,-0.29066 -0.075,-0.67508 0.22503,-0.85323 l 7.50096,-4.36931 0,1.07827 -7.50096,-4.37869 c -0.30003,-0.16877 -0.40317,-0.55319 -0.22503,-0.85323 0.16878,-0.30004 0.5532,-0.40317 0.85324,-0.22503 z" style="fill:#000;fill-opacity:1;fill-rule:nonzero;stroke:#000;stroke-width:.00937619px;stroke-linecap:butt;stroke-linejoin:round;stroke-opacity:1;stroke-dasharray:none"/><path id="path3075" d="m 117.86809,240.81808 52.5348,-48.78432 -0.84386,-0.91887 -52.54417,48.78432 z m 50.19075,-40.74892 2.83161,-9.33869 -9.51683,2.13777 c -0.33755,0.075 -0.5532,0.40318 -0.47819,0.74072 0.075,0.33754 0.41255,0.5532 0.7501,0.47819 l 8.47607,-1.90337 -0.74072,-0.7876 -2.51282,8.3073 c -0.10313,0.33755 0.0844,0.68447 0.41256,0.77823 0.32816,0.10314 0.67508,-0.0844 0.77822,-0.41255 z" style="fill:#000;fill-opacity:1;fill-rule:nonzero;stroke:#000;stroke-width:.00937619px;stroke-linecap:butt;stroke-linejoin:round;stroke-opacity:1;stroke-dasharray:none"/><path id="path3077" d="m 252.14452,174.17212 49.71256,0 0,1.25641 -49.71256,0 z m 42.5304,-4.2943 8.41982,4.91313 -8.41982,4.93187 c -0.30004,0.16877 -0.67509,0.075 -0.86261,-0.22503 -0.16877,-0.30004 -0.075,-0.69384 0.22503,-0.86261 l 7.50095,-4.3693 0,1.06888 -7.50095,-4.3693 c -0.30004,-0.16877 -0.3938,-0.56257 -0.22503,-0.86261 0.18752,-0.30004 0.56257,-0.3938 0.86261,-0.22503 z" style="fill:#000;fill-opacity:1;fill-rule:nonzero;stroke:#000;stroke-width:.01875238px;stroke-linecap:butt;stroke-linejoin:round;stroke-opacity:1;stroke-dasharray:none"/><path id="path3079" d="m 252.14452,248.56281 49.71256,0 0,1.23766 -49.71256,0 z m 42.5304,-4.29429 8.41982,4.91312 -8.41982,4.91313 c -0.30004,0.18752 -0.67509,0.075 -0.86261,-0.22503 -0.16877,-0.30004 -0.075,-0.67509 0.22503,-0.84386 l 7.50095,-4.38806 0,1.08764 -7.50095,-4.3693 c -0.30004,-0.18753 -0.3938,-0.56258 -0.22503,-0.86261 0.18752,-0.30004 0.56257,-0.3938 0.86261,-0.22503 z" style="fill:#000;fill-opacity:1;fill-rule:nonzero;stroke:#000;stroke-width:.01875238px;stroke-linecap:butt;stroke-linejoin:round;stroke-opacity:1;stroke-dasharray:none"/><text id="text3081" x="189.874" y="177.522" xml:space="preserve" style="font-size:4.95062876px;font-style:italic;font-weight:400;text-align:start;text-anchor:start;fill:#000;font-family:Verdana">partition 1</text><text id="text3083" x="189.874" y="251.061" xml:space="preserve" style="font-size:4.95062876px;font-style:italic;font-weight:400;text-align:start;text-anchor:start;fill:#000;font-family:Verdana">partition 2</text><path id="path3085" d="m 352.46976,174.17212 49.71256,0 0,1.25641 -49.71256,0 z m 42.5304,-4.2943 8.41982,4.91313 -8.41982,4.93187 c -0.30004,0.16877 -0.67509,0.075 -0.86261,-0.22503 -0.16877,-0.30004 -0.075,-0.69384 0.22503,-0.86261 l 7.50095,-4.3693 0,1.06888 -7.50095,-4.3693 c -0.30004,-0.16877 -0.3938,-0.56257 -0.22503,-0.86261 0.18752,-0.30004 0.56257,-0.3938 0.86261,-0.22503 z" style="fill:#000;fill-opacity:1;fill-rule:nonzero;stroke:#000;stroke-width:.01875238px;stroke-linecap:butt;stroke-linejoin:round;stroke-opacity:1;stroke-dasharray:none"/><path id="path3087" d="m 352.46976,248.56281 49.71256,0 0,1.23766 -49.71256,0 z m 42.5304,-4.29429 8.41982,4.91312 -8.41982,4.91313 c -0.30004,0.18752 -0.67509,0.075 -0.86261,-0.22503 -0.16877,-0.30004 -0.075,-0.67509 0.22503,-0.84386 l 7.50095,-4.38806 0,1.08764 -7.50095,-4.3693 c -0.30004,-0.18753 -0.3938,-0.56258 -0.22503,-0.86261 0.18752,-0.30004 0.56257,-0.3938 0.86261,-0.22503 z" style="fill:#000;fill-opacity:1;fill-rule:nonzero;stroke:#000;stroke-width:.01875238px;stroke-linecap:butt;stroke-linejoin:round;stroke-opacity:1;stroke-dasharray:none"/><path id="path3089" d="m 352.93857,177.66006 55.60081,58.61994 -0.90012,0.86261 -55.61956,-58.63869 z m 53.76307,50.46266 2.23154,9.4887 -9.35744,-2.73785 c -0.33754,-0.0938 -0.52507,-0.4313 -0.43131,-0.76884 0.0938,-0.33755 0.45006,-0.52507 0.7876,-0.43131 l 8.32606,2.43781 -0.7876,0.7501 -1.98775,-8.45733 c -0.075,-0.33754 0.13127,-0.67508 0.46881,-0.75009 0.33754,-0.0938 0.67508,0.13126 0.75009,0.46881 z" style="fill:#000;fill-opacity:1;fill-rule:nonzero;stroke:#000;stroke-width:.01875238px;stroke-linecap:butt;stroke-linejoin:round;stroke-opacity:1;stroke-dasharray:none"/><path id="path3091" d="m 352.93857,246.8751 52.58167,-54.81321 -0.90011,-0.86261 -52.60043,54.79446 z m 50.70644,-46.65593 2.28779,-9.4887 -9.39495,2.68159 c -0.31879,0.0938 -0.52506,0.45006 -0.4313,0.76885 0.0938,0.33754 0.45006,0.52506 0.7876,0.4313 l 8.34481,-2.38155 -0.7876,-0.7501 -2.02526,8.43858 c -0.0938,0.33754 0.11251,0.67508 0.45006,0.76884 0.33754,0.075 0.67508,-0.13126 0.76885,-0.46881 z" style="fill:#000;fill-opacity:1;fill-rule:nonzero;stroke:#000;stroke-width:.01875238px;stroke-linecap:butt;stroke-linejoin:round;stroke-opacity:1;stroke-dasharray:none"/><path id="path3093" d="m 40.561401,302.94472 c 0,-5.00689 4.069266,-9.07615 9.0574,-9.07615 5.006885,0 9.076152,4.06926 9.076152,9.07615 0,5.00688 -4.069267,9.0574 -9.076152,9.0574 -4.988134,0 -9.0574,-4.05052 -9.0574,-9.0574" style="fill:none;stroke:#000;stroke-width:1.25640953px;stroke-linecap:butt;stroke-linejoin:miter;stroke-miterlimit:4;stroke-opacity:1;stroke-dasharray:none"/><path id="path3095" d="m 49.468782,303.57292 0,-7.66972" style="fill:none;stroke:#000;stroke-width:1.24703336px;stroke-linecap:butt;stroke-linejoin:miter;stroke-miterlimit:4;stroke-opacity:1;stroke-dasharray:none"/><path id="path3097" d="m 52.862963,306.02011 -3.394181,-2.45656" style="fill:none;stroke:#000;stroke-width:1.25640953px;stroke-linecap:butt;stroke-linejoin:miter;stroke-miterlimit:4;stroke-opacity:1;stroke-dasharray:none"/><path id="path3099" d="m 417.33424,302.94472 c 0,-5.00689 4.08802,-9.07615 9.13241,-9.07615 5.06315,0 9.15117,4.06926 9.15117,9.07615 0,5.00688 -4.08802,9.0574 -9.15117,9.0574 -5.04439,0 -9.13241,-4.05052 -9.13241,-9.0574" style="fill:none;stroke:#000;stroke-width:1.25640953px;stroke-linecap:butt;stroke-linejoin:miter;stroke-miterlimit:4;stroke-opacity:1;stroke-dasharray:none"/><path id="path3101" d="m 426.39164,303.5823 0,-7.66972" style="fill:none;stroke:#000;stroke-width:1.25640953px;stroke-linecap:butt;stroke-linejoin:miter;stroke-miterlimit:4;stroke-opacity:1;stroke-dasharray:none"/><path id="path3103" d="m 429.78582,306.02011 -3.39418,-2.45656" style="fill:none;stroke:#000;stroke-width:1.25640953px;stroke-linecap:butt;stroke-linejoin:miter;stroke-miterlimit:4;stroke-opacity:1;stroke-dasharray:none"/><path id="path3105" d="m 297.319,302.94472 c 0,-5.00689 4.05052,-9.07615 9.0574,-9.07615 5.00689,0 9.0574,4.06926 9.0574,9.07615 0,5.00688 -4.05051,9.0574 -9.0574,9.0574 -5.00688,0 -9.0574,-4.05052 -9.0574,-9.0574" style="fill:none;stroke:#000;stroke-width:1.25640953px;stroke-linecap:butt;stroke-linejoin:miter;stroke-miterlimit:4;stroke-opacity:1;stroke-dasharray:none"/><path id="path3107" d="m 306.22639,303.5823 0,-7.66972" style="fill:none;stroke:#000;stroke-width:1.25640953px;stroke-linecap:butt;stroke-linejoin:miter;stroke-miterlimit:4;stroke-opacity:1;stroke-dasharray:none"/><path id="path3109" d="m 309.62057,306.02011 -3.39418,-2.45656" style="fill:none;stroke:#000;stroke-width:1.25640953px;stroke-linecap:butt;stroke-linejoin:miter;stroke-miterlimit:4;stroke-opacity:1;stroke-dasharray:none"/><text id="text3111" x="67.694" y="308.08" xml:space="preserve" style="font-size:8.70110512px;font-style:italic;font-weight:400;text-align:start;text-anchor:start;fill:#000;font-family:Verdana">Event</text><text id="text3113" x="69.494" y="318.581" xml:space="preserve" style="font-size:8.70110512px;font-style:italic;font-weight:400;text-align:start;text-anchor:start;fill:#000;font-family:Verdana">Time</text><text id="text3115" x="319.446" y="308.077" xml:space="preserve" style="font-size:8.70110512px;font-style:italic;font-weight:400;text-align:start;text-anchor:start;fill:#000;font-family:Verdana">Ingestion</text><text id="text3117" x="329.197" y="318.579" xml:space="preserve" style="font-size:8.70110512px;font-style:italic;font-weight:400;text-align:start;text-anchor:start;fill:#000;font-family:Verdana">Time</text><text id="text3119" x="443.559" y="309.467" xml:space="preserve" style="font-size:8.70110512px;font-style:italic;font-weight:400;text-align:start;text-anchor:start;fill:#000;font-family:Verdana">Window</text><text id="text3121" x="437.408" y="319.968" xml:space="preserve" style="font-size:8.70110512px;font-style:italic;font-weight:400;text-align:start;text-anchor:start;fill:#000;font-family:Verdana">Processing</text><text id="text3123" x="449.86" y="330.47" xml:space="preserve" style="font-size:8.70110512px;font-style:italic;font-weight:400;text-align:start;text-anchor:start;fill:#000;font-family:Verdana">Time</text><path id="path3125" d="m 307.31402,271.36571 0,-1.23766 1.25641,0 0,1.23766 -1.25641,0 z m 0,-2.49407 0,-1.25641 1.25641,0 0,1.25641 -1.25641,0 z m 0,-2.49406 0,-1.25641 1.25641,0 0,1.25641 -1.25641,0 z m 0,-2.51282 0,-1.23766 1.25641,0 0,1.23766 -1.25641,0 z m 0,-2.49407 0,-1.25641 1.25641,0 0,1.25641 -1.25641,0 z m 0,-2.49407 0,-1.25641 1.25641,0 0,1.25641 -1.25641,0 z m 0,-2.51282 0,-1.23765 1.25641,0 0,1.23765 -1.25641,0 z m 0,-2.49406 0,-1.25641 1.25641,0 0,1.25641 -1.25641,0 z m 0,-2.49407 0,-1.25641 1.25641,0 0,1.25641 -1.25641,0 z m 0,-2.51282 0,-1.23766 1.25641,0 0,1.23766 -1.25641,0 z m 0,-2.49407 0,-1.25641 1.25641,0 0,1.25641 -1.25641,0 z m 0,-2.49406 0,-1.25641 1.25641,0 0,1.25641 -1.25641,0 z m 0,-2.51282 0,-1.23766 1.25641,0 0,1.23766 -1.25641,0 z m 0,-2.49407 0,-1.25641 1.25641,0 0,1.25641 -1.25641,0 z m 0,-2.49406 0,-1.25641 1.25641,0 0,1.25641 -1.25641,0 z m 0,-2.51282 0,-1.23766 1.25641,0 0,1.23766 -1.25641,0 z m 0,-2.49407 0,-1.25641 1.25641,0 0,1.25641 -1.25641,0 z m 0,-2.49407 0,-1.25641 1.25641,0 0,1.25641 -1.25641,0 z m 0,-2.51282 0,-1.23765 1.25641,0 0,1.23765 -1.25641,0 z m 0,-2.49406 0,-1.25641 1.25641,0 0,1.25641 -1.25641,0 z m 0,-2.49407 0,-1.25641 1.25641,0 0,1.25641 -1.25641,0 z m 0,-2.51282 0,-1.23766 1.25641,0 0,1.23766 -1.25641,0 z m 0,-2.49407 0,-1.25641 1.25641,0 0,1.25641 -1.25641,0 z m 0,-2.49406 0,-1.25641 1.25641,0 0,1.25641 -1.25641,0 z m 0,-2.51282 0,-1.23766 1.25641,0 0,1.23766 -1.25641,0 z m 0,-2.49407 0,-1.25641 1.25641,0 0,1.25641 -1.25641,0 z m 0,-2.49406 0,-1.25641 1.25641,0 0,1.25641 -1.25641,0 z m 0,-2.51282 0,-1.23766 1.25641,0 0,1.23766 -1.25641,0 z m 0,-2.49407 0,-1.25641 1.25641,0 0,1.25641 -1.25641,0 z m 0,-2.49407 0,-1.25641 1.25641,0 0,1.25641 -1.25641,0 z m 0,-2.51282 0,-1.23765 1.25641,0 0,1.23765 -1.25641,0 z m 0,-2.49406 0,-1.25641 1.25641,0 0,1.25641 -1.25641,0 z m 0,-2.49407 0,-1.25641 1.25641,0 0,1.25641 -1.25641,0 z m 0,-2.51282 0,-1.23766 1.25641,0 0,1.23766 -1.25641,0 z m 0,-2.49407 0,-1.25641 1.25641,0 0,1.25641 -1.25641,0 z m 0,-2.49406 0,-1.25641 1.25641,0 0,1.25641 -1.25641,0 z m 0,-2.51282 0,-1.23766 1.25641,0 0,1.23766 -1.25641,0 z m 0,-2.49407 0,-1.25641 1.25641,0 0,1.25641 -1.25641,0 z m 0,-2.49406 0,-1.25641 1.25641,0 0,1.25641 -1.25641,0 z m 0,-2.51282 0,-1.23766 1.25641,0 0,1.23766 -1.25641,0 z m 0,-2.49407 0,-1.25641 1.25641,0 0,1.25641 -1.25641,0 z m 0,-2.49407 0,-1.25641 1.25641,0 0,1.25641 -1.25641,0 z m 0,-2.51282 0,-1.23765 1.25641,0 0,1.23765 -1.25641,0 z m 0,-2.49406 0,-1.25641 1.25641,0 0,1.25641 -1.25641,0 z m 0,-2.49407 0,-1.25641 1.25641,0 0,1.25641 -1.25641,0 z m 0,-2.51282 0,-1.23766 1.25641,0 0,1.23766 -1.25641,0 z m 0,-2.49407 0,-1.25641 1.25641,0 0,1.25641 -1.25641,0 z m 0,-2.49406 0,-1.25641 1.25641,0 0,1.25641 -1.25641,0 z m 0,-2.51282 0,-1.40643 1.08764,0 0,1.25641 -0.46881,0 0.63758,-0.61883 0,0.76885 -1.25641,0 z m 2.34405,-1.40643 1.25641,0 0,1.25641 -1.25641,0 0,-1.25641 z m 2.49407,0 1.25641,0 0,1.25641 -1.25641,0 0,-1.25641 z m 2.51282,0 1.23765,0 0,1.25641 -1.23765,0 0,-1.25641 z m 2.49406,0 1.25641,0 0,1.25641 -1.25641,0 0,-1.25641 z m 2.49407,0 1.25641,0 0,1.25641 -1.25641,0 0,-1.25641 z m 2.51282,0 1.23766,0 0,1.25641 -1.23766,0 0,-1.25641 z m 2.49407,0 1.25641,0 0,1.25641 -1.25641,0 0,-1.25641 z m 2.49406,0 1.25641,0 0,1.25641 -1.25641,0 0,-1.25641 z m 2.51282,0 1.23766,0 0,1.25641 -1.23766,0 0,-1.25641 z m 2.49407,0 1.25641,0 0,1.25641 -1.25641,0 0,-1.25641 z m 2.49406,0 1.25641,0 0,1.25641 -1.25641,0 0,-1.25641 z m 2.51282,0 1.23766,0 0,1.25641 -1.23766,0 0,-1.25641 z m 2.49407,0 1.25641,0 0,1.25641 -1.25641,0 0,-1.25641 z m 2.49407,0 1.25641,0 0,1.25641 -1.25641,0 0,-1.25641 z m 2.51282,0 1.23765,0 0,1.25641 -1.23765,0 0,-1.25641 z m 2.49406,0 1.25641,0 0,1.25641 -1.25641,0 0,-1.25641 z m 2.49407,0 1.25641,0 0,1.25641 -1.25641,0 0,-1.25641 z m 2.51282,0 1.23766,0 0,1.25641 -1.23766,0 0,-1.25641 z m 2.49407,0 1.25641,0 0,1.25641 -1.25641,0 0,-1.25641 z m 2.49406,0 1.25641,0 0,1.25641 -1.25641,0 0,-1.25641 z m 2.51282,0 1.23766,0 0,1.25641 -1.23766,0 0,-1.25641 z m 2.49407,0 1.25641,0 0,1.25641 -1.25641,0 0,-1.25641 z m 2.49406,0 1.25641,0 0,1.25641 -1.25641,0 0,-1.25641 z m 2.51282,0 1.23766,0 0,1.25641 -1.23766,0 0,-1.25641 z m 2.49407,0 1.25641,0 0,1.25641 -1.25641,0 0,-1.25641 z m 2.49407,0 1.25641,0 0,1.25641 -1.25641,0 0,-1.25641 z m 2.51282,0 1.23765,0 0,1.25641 -1.23765,0 0,-1.25641 z m 2.49406,0 1.25641,0 0,1.25641 -1.25641,0 0,-1.25641 z m 2.49407,0 1.25641,0 0,1.25641 -1.25641,0 0,-1.25641 z m 2.51282,0 1.23766,0 0,1.25641 -1.23766,0 0,-1.25641 z m 2.49407,0 1.25641,0 0,1.25641 -1.25641,0 0,-1.25641 z m 2.49406,0 1.25641,0 0,1.25641 -1.25641,0 0,-1.25641 z m 2.51282,0 1.23766,0 0,1.25641 -1.23766,0 0,-1.25641 z m 2.49407,0 1.25641,0 0,1.25641 -1.25641,0 0,-1.25641 z m 2.49406,0 1.25641,0 0,1.25641 -1.25641,0 0,-1.25641 z m 2.51282,0 1.23766,0 0,1.25641 -1.23766,0 0,-1.25641 z m 2.49407,0 1.25641,0 0,1.25641 -1.25641,0 0,-1.25641 z m 2.49407,0 1.25641,0 0,1.25641 -1.25641,0 0,-1.25641 z m 2.51282,0 1.23765,0 0,1.25641 -1.23765,0 0,-1.25641 z m 2.49406,0 1.25641,0 0,1.25641 -1.25641,0 0,-1.25641 z m 2.49407,0 1.25641,0 0,1.25641 -1.25641,0 0,-1.25641 z m 2.51282,0 1.23766,0 0,1.25641 -1.23766,0 0,-1.25641 z m 2.49407,0 1.25641,0 0,1.25641 -1.25641,0 0,-1.25641 z m 2.49406,0 1.25641,0 0,1.25641 -1.25641,0 0,-1.25641 z m 2.51282,0 1.23766,0 0,1.25641 -1.23766,0 0,-1.25641 z m 2.49407,0 1.25641,0 0,1.25641 -1.25641,0 0,-1.25641 z m 2.49406,0 1.25641,0 0,1.25641 -1.25641,0 0,-1.25641 z m 2.51282,0 1.23766,0 0,1.25641 -1.23766,0 0,-1.25641 z m 2.49407,0 1.25641,0 0,1.25641 -1.25641,0 0,-1.25641 z m 2.49407,0 1.25641,0 0,1.25641 -1.25641,0 0,-1.25641 z m 2.51282,0 1.23765,0 0,1.25641 -1.23765,0 0,-1.25641 z m 2.49406,0 1.25641,0 0,1.25641 -1.25641,0 0,-1.25641 z m 2.49407,0 1.25641,0 0,1.25641 -1.25641,0 0,-1.25641 z m 2.51282,0 1.23766,0 0,1.25641 -1.23766,0 0,-1.25641 z m 2.49407,0 1.25641,0 0,1.25641 -1.25641,0 0,-1.25641 z m 2.49406,0 1.25641,0 0,1.25641 -1.25641,0 0,-1.25641 z m 2.51282,0 0.93762,0 0,1.5752 -1.25641,0 0,-0.93762 0.61883,0.61883 -0.30004,0 0,-1.25641 z m 0.93762,2.81286 0,1.25641 -1.25641,0 0,-1.25641 1.25641,0 z m 0,2.51282 0,1.23765 -1.25641,0 0,-1.23765 1.25641,0 z m 0,2.49406 0,1.25641 -1.25641,0 0,-1.25641 1.25641,0 z m 0,2.49407 0,1.25641 -1.25641,0 0,-1.25641 1.25641,0 z m 0,2.51282 0,1.23766 -1.25641,0 0,-1.23766 1.25641,0 z m 0,2.49407 0,1.25641 -1.25641,0 0,-1.25641 1.25641,0 z m 0,2.49406 0,1.25641 -1.25641,0 0,-1.25641 1.25641,0 z m 0,2.51282 0,1.23766 -1.25641,0 0,-1.23766 1.25641,0 z m 0,2.49407 0,1.25641 -1.25641,0 0,-1.25641 1.25641,0 z m 0,2.49406 0,1.25641 -1.25641,0 0,-1.25641 1.25641,0 z m 0,2.51282 0,1.23766 -1.25641,0 0,-1.23766 1.25641,0 z m 0,2.49407 0,1.25641 -1.25641,0 0,-1.25641 1.25641,0 z m 0,2.49407 0,1.25641 -1.25641,0 0,-1.25641 1.25641,0 z m 0,2.51282 0,1.23765 -1.25641,0 0,-1.23765 1.25641,0 z m 0,2.49406 0,1.25641 -1.25641,0 0,-1.25641 1.25641,0 z m 0,2.49407 0,1.25641 -1.25641,0 0,-1.25641 1.25641,0 z m 0,2.51282 0,1.23766 -1.25641,0 0,-1.23766 1.25641,0 z m 0,2.49407 0,1.25641 -1.25641,0 0,-1.25641 1.25641,0 z m 0,2.49406 0,1.25641 -1.25641,0 0,-1.25641 1.25641,0 z m 0,2.51282 0,1.23766 -1.25641,0 0,-1.23766 1.25641,0 z m 0,2.49407 0,1.25641 -1.25641,0 0,-1.25641 1.25641,0 z m 0,2.49406 0,1.25641 -1.25641,0 0,-1.25641 1.25641,0 z m 0,2.51282 0,1.23766 -1.25641,0 0,-1.23766 1.25641,0 z m 0,2.49407 0,1.25641 -1.25641,0 0,-1.25641 1.25641,0 z m 0,2.49407 0,1.25641 -1.25641,0 0,-1.25641 1.25641,0 z m 0,2.51282 0,1.23765 -1.25641,0 0,-1.23765 1.25641,0 z m 0,2.49406 0,1.25641 -1.25641,0 0,-1.25641 1.25641,0 z m 0,2.49407 0,1.25641 -1.25641,0 0,-1.25641 1.25641,0 z m 0,2.51282 0,1.23766 -1.25641,0 0,-1.23766 1.25641,0 z m 0,2.49407 0,1.2564 -1.25641,0 0,-1.2564 1.25641,0 z m 0,2.49406 0,1.25641 -1.25641,0 0,-1.25641 1.25641,0 z m 0,2.51282 0,1.23766 -1.25641,0 0,-1.23766 1.25641,0 z m 0,2.49407 0,1.25641 -1.25641,0 0,-1.25641 1.25641,0 z m 0,2.49406 0,1.25641 -1.25641,0 0,-1.25641 1.25641,0 z m 0,2.51282 0,1.23766 -1.25641,0 0,-1.23766 1.25641,0 z m 0,2.49407 0,1.25641 -1.25641,0 0,-1.25641 1.25641,0 z m 0,2.49407 0,1.25641 -1.25641,0 0,-1.25641 1.25641,0 z m 0,2.51282 0,1.23765 -1.25641,0 0,-1.23765 1.25641,0 z m 0,2.49406 0,1.25641 -1.25641,0 0,-1.25641 1.25641,0 z m 0,2.49407 0,1.25641 -1.25641,0 0,-1.25641 1.25641,0 z m 0,2.51282 0,1.23766 -1.25641,0 0,-1.23766 1.25641,0 z m 0,2.49407 0,1.2564 -1.25641,0 0,-1.2564 1.25641,0 z m 0,2.49406 0,1.25641 -1.25641,0 0,-1.25641 1.25641,0 z m 0,2.51282 0,1.23766 -1.25641,0 0,-1.23766 1.25641,0 z m 0,2.49407 0,1.25641 -1.25641,0 0,-1.25641 1.25641,0 z m 0,2.49406 0,1.25641 -1.25641,0 0,-1.25641 1.25641,0 z m 0,2.51282 0,1.23766 -1.25641,0 0,-1.23766 1.25641,0 z m 0,2.49407 0,1.72522 -0.7876,0 0,-1.25641 0.15002,0 -0.61883,0.61883 0,-1.08764 1.25641,0 z m -2.04401,1.72522 -1.23766,0 0,-1.25641 1.23766,0 0,1.25641 z m -2.49407,0 -1.25641,0 0,-1.25641 1.25641,0 0,1.25641 z m -2.49406,0 -1.25641,0 0,-1.25641 1.25641,0 0,1.25641 z m -2.51282,0 -1.23766,0 0,-1.25641 1.23766,0 0,1.25641 z m -2.49407,0 -1.25641,0 0,-1.25641 1.25641,0 0,1.25641 z m -2.49407,0 -1.2564,0 0,-1.25641 1.2564,0 0,1.25641 z m -2.51281,0 -1.23766,0 0,-1.25641 1.23766,0 0,1.25641 z m -2.49407,0 -1.25641,0 0,-1.25641 1.25641,0 0,1.25641 z m -2.49407,0 -1.25641,0 0,-1.25641 1.25641,0 0,1.25641 z m -2.51282,0 -1.23765,0 0,-1.25641 1.23765,0 0,1.25641 z m -2.49406,0 -1.25641,0 0,-1.25641 1.25641,0 0,1.25641 z m -2.49407,0 -1.25641,0 0,-1.25641 1.25641,0 0,1.25641 z m -2.51282,0 -1.23766,0 0,-1.25641 1.23766,0 0,1.25641 z m -2.49407,0 -1.25641,0 0,-1.25641 1.25641,0 0,1.25641 z m -2.49406,0 -1.25641,0 0,-1.25641 1.25641,0 0,1.25641 z m -2.51282,0 -1.23766,0 0,-1.25641 1.23766,0 0,1.25641 z m -2.49407,0 -1.25641,0 0,-1.25641 1.25641,0 0,1.25641 z m -2.49406,0 -1.25641,0 0,-1.25641 1.25641,0 0,1.25641 z m -2.51282,0 -1.23766,0 0,-1.25641 1.23766,0 0,1.25641 z m -2.49407,0 -1.25641,0 0,-1.25641 1.25641,0 0,1.25641 z m -2.49407,0 -1.25641,0 0,-1.25641 1.25641,0 0,1.25641 z m -2.51282,0 -1.23765,0 0,-1.25641 1.23765,0 0,1.25641 z m -2.49406,0 -1.25641,0 0,-1.25641 1.25641,0 0,1.25641 z m -2.49407,0 -1.25641,0 0,-1.25641 1.25641,0 0,1.25641 z m -2.51282,0 -1.23766,0 0,-1.25641 1.23766,0 0,1.25641 z m -2.49407,0 -1.25641,0 0,-1.25641 1.25641,0 0,1.25641 z m -2.49406,0 -1.25641,0 0,-1.25641 1.25641,0 0,1.25641 z m -2.51282,0 -1.23766,0 0,-1.25641 1.23766,0 0,1.25641 z m -2.49407,0 -1.25641,0 0,-1.25641 1.25641,0 0,1.25641 z m -2.49406,0 -1.25641,0 0,-1.25641 1.25641,0 0,1.25641 z m -2.51282,0 -1.23766,0 0,-1.25641 1.23766,0 0,1.25641 z m -2.49407,0 -1.25641,0 0,-1.25641 1.25641,0 0,1.25641 z m -2.49407,0 -1.25641,0 0,-1.25641 1.25641,0 0,1.25641 z m -2.51282,0 -1.23765,0 0,-1.25641 1.23765,0 0,1.25641 z m -2.49406,0 -1.25641,0 0,-1.25641 1.25641,0 0,1.25641 z m -2.49407,0 -1.25641,0 0,-1.25641 1.25641,0 0,1.25641 z m -2.51282,0 -1.23766,0 0,-1.25641 1.23766,0 0,1.25641 z m -2.49407,0 -1.25641,0 0,-1.25641 1.25641,0 0,1.25641 z m -2.49406,0 -1.25641,0 0,-1.25641 1.25641,0 0,1.25641 z m -2.51282,0 -1.23766,0 0,-1.25641 1.23766,0 0,1.25641 z m -2.49407,0 -1.25641,0 0,-1.25641 1.25641,0 0,1.25641 z m -2.49406,0 -1.25641,0 0,-1.25641 1.25641,0 0,1.25641 z m -2.51282,0 -1.23766,0 0,-1.25641 1.23766,0 0,1.25641 z m -2.49407,0 -1.25641,0 0,-1.25641 1.25641,0 0,1.25641 z m -2.49407,0 -1.25641,0 0,-1.25641 1.25641,0 0,1.25641 z m -2.51282,0 -1.23765,0 0,-1.25641 1.23765,0 0,1.25641 z m -2.49406,0 -1.25641,0 0,-1.25641 1.25641,0 0,1.25641 z m -2.49407,0 -1.25641,0 0,-1.25641 1.25641,0 0,1.25641 z m -2.51282,0 -1.23766,0 0,-1.25641 1.23766,0 0,1.25641 z m -2.49407,0 -1.25641,0 0,-1.25641 1.25641,0 0,1.25641 z m -2.49406,0 -1.25641,0 0,-1.25641 1.25641,0 0,1.25641 z m -2.51282,0 -1.23766,0 0,-1.25641 1.23766,0 0,1.25641 z m -2.49407,0 -1.25641,0 0,-1.25641 1.25641,0 0,1.25641 z m -2.49406,0 -1.25641,0 0,-1.25641 1.25641,0 0,1.25641 z m -2.51282,0 -1.23766,0 0,-1.25641 1.23766,0 0,1.25641 z m -2.49407,0 -1.25641,0 0,-1.25641 1.25641,0 0,1.25641 z m -2.49407,0 -0.63758,0 0,-1.25641 0.63758,0 0,1.25641 z" style="fill:#000;fill-opacity:1;fill-rule:nonzero;stroke:#000;stroke-width:.01875238px;stroke-linecap:butt;stroke-linejoin:round;stroke-opacity:1;stroke-dasharray:none"/><path id="path3127" d="m 70.968387,294.47802 12.751619,-25.48449 -1.115767,-0.56257 -12.751619,25.49386 z m 14.429957,-24.65001 c 0.618829,-1.22828 0.112514,-2.72847 -1.115767,-3.3473 -1.237657,-0.61883 -2.737847,-0.12189 -3.356676,1.11577 -0.618828,1.23766 -0.12189,2.73785 1.115767,3.35668 1.237657,0.61882 2.737847,0.11251 3.356676,-1.12515 z" style="fill:#000;fill-opacity:1;fill-rule:nonzero;stroke:#000;stroke-width:.00937619px;stroke-linecap:butt;stroke-linejoin:round;stroke-opacity:1;stroke-dasharray:none"/><path id="path3129" d="m 325.74761,293.15598 6.37581,-31.97281 -1.23765,-0.24379 -6.37581,31.97281 z m 8.21355,-31.59777 c 0.26253,-1.36892 -0.61883,-2.68159 -1.969,-2.94412 -1.35017,-0.28129 -2.66284,0.60008 -2.94413,1.95025 -0.26253,1.36892 0.61883,2.68159 1.969,2.94412 1.35017,0.28129 2.68159,-0.60008 2.94413,-1.95025 z" style="fill:#000;fill-opacity:1;fill-rule:nonzero;stroke:#000;stroke-width:.01875238px;stroke-linecap:butt;stroke-linejoin:round;stroke-opacity:1;stroke-dasharray:none"/><path id="path3131" d="m 440.38092,294.03734 -14.5706,-36.49214 1.16265,-0.46881 14.5706,36.49214 z m -16.31457,-35.7983 c -0.50632,-1.27516 0.11251,-2.73785 1.40643,-3.24416 1.27516,-0.52507 2.73784,0.11251 3.24416,1.38768 0.50631,1.27516 -0.11252,2.73784 -1.38768,3.24416 -1.29391,0.52506 -2.73784,-0.11252 -3.26291,-1.38768 z" style="fill:#000;fill-opacity:1;fill-rule:nonzero;stroke:#000;stroke-width:.01875238px;stroke-linecap:butt;stroke-linejoin:round;stroke-opacity:1;stroke-dasharray:none"/></g></g></svg>